HIERARCHY
ROOT Hips
{
    OFFSET 0.000000 0.000000 0.000000
    CHANNELS 6 Xposition Yposition Zposition Zrotation Xrotation Yrotation
    JOINT Spine
    {
        OFFSET -0.000000 14.517291 0.000000
        CHANNELS 3 Zrotation Xrotation Yrotation
        JOINT Spine1
        {
            OFFSET -0.000000 37.558300 0.000000
            CHANNELS 3 Zrotation Xrotation Yrotation
            JOINT Neck
            {
                OFFSET -0.000000 37.404057 3.400369
                CHANNELS 3 Zrotation Xrotation Yrotation
                JOINT Head
                {
                    OFFSET -0.000000 24.785618 -3.540803
                    CHANNELS 3 Zrotation Xrotation Yrotation
                    End Site
                    {
                        OFFSET -0.000000 35.408028 0.000000
                    }
                }
            }
            JOINT LeftShoulder
            {
                OFFSET 6.992933 33.973492 -0.192664
                CHANNELS 3 Zrotation Xrotation Yrotation
                JOINT LeftArm
                {
                    OFFSET 21.527611 0.000000 0.000000
                    CHANNELS 3 Zrotation Xrotation Yrotation
                    JOINT LeftForeArm
                    {
                        OFFSET 56.353916 0.000000 0.000000
                        CHANNELS 3 Zrotation Xrotation Yrotation
                        JOINT LeftHand
                        {
                            OFFSET 47.774071 0.000000 0.000000
                            CHANNELS 3 Zrotation Xrotation Yrotation
                            End Site
                            {
                                OFFSET 26.556021 0.000000 0.000000
                            }
                        }
                    }
                }
            }
            JOINT RightShoulder
            {
                OFFSET -7.065357 33.973492 -0.192664
                CHANNELS 3 Zrotation Xrotation Yrotation
                JOINT RightArm
                {
                    OFFSET -21.527611 0.000000 0.000000
                    CHANNELS 3 Zrotation Xrotation Yrotation
                    JOINT RightForeArm
                    {
                        OFFSET -56.353916 0.000000 0.000000
                        CHANNELS 3 Zrotation Xrotation Yrotation
                        JOINT RightHand
                        {
                            OFFSET -47.774071 0.000000 0.000000
                            CHANNELS 3 Zrotation Xrotation Yrotation
                            End Site
                            {
                                OFFSET -26.556021 0.000000 0.000000
                            }
                        }
                    }
                }
            }
        }
    }
    JOINT LeftUpLeg
    {
        OFFSET 17.704014 0.000000 0.000000
        CHANNELS 3 Zrotation Xrotation Yrotation
        JOINT LeftLeg
        {
            OFFSET -0.000000 -81.181816 0.000000
            CHANNELS 3 Zrotation Xrotation Yrotation
            JOINT LeftFoot
            {
                OFFSET -0.000000 -62.821102 0.000000
                CHANNELS 3 Zrotation Xrotation Yrotation
                JOINT LeftToeBase
                {
                    OFFSET -0.000000 -11.507608 26.556021
                    CHANNELS 3 Zrotation Xrotation Yrotation
                    End Site
                    {
                        OFFSET -0.000000 0.000000 7.081605
                    }
                }
            }
        }
    }
    JOINT RightUpLeg
    {
        OFFSET -17.704014 0.000000 0.000000
        CHANNELS 3 Zrotation Xrotation Yrotation
        JOINT RightLeg
        {
            OFFSET -0.000000 -81.181816 0.000000
            CHANNELS 3 Zrotation Xrotation Yrotation
            JOINT RightFoot
            {
                OFFSET -0.000000 -62.821102 0.000000
                CHANNELS 3 Zrotation Xrotation Yrotation
                JOINT RightToeBase
                {
                    OFFSET -0.000000 -11.507608 26.556021
                    CHANNELS 3 Zrotation Xrotation Yrotation
                    End Site
                    {
                        OFFSET -0.000000 0.000000 7.081605
                    }
                }
            }
        }
    }
}
MOTION
Frames:    8
Frame Time:    0.008333
-30.533442    148.267227    -10.059087    0.645902    5.378896    -28.121586    1.574863    0.944338    15.201728    -7.149379    -0.255412    5.055614    7.644034    -6.633839    -0.661195    5.947118    9.942005    -1.939984    1.100266    2.923084    -5.973116    -46.987972    13.575879    -29.955626    -6.057199    -17.716192    -126.626541    -2.104321    -28.748274    -4.118206    -15.921255    -0.635675    7.641106    34.014568    -16.819319    81.591454    4.401961    -15.590240    33.264187    12.157891    -12.158683    43.332119    1.436983    -40.139030    -13.236491    -26.797346    36.743256    -1.608944    8.216533    -3.536263    42.495007    0.000000    0.000000    0.000000    12.202634    6.495169    -11.979782    3.901831    30.568516    -3.984959    -4.351266    -30.103642    -8.340166    0.000000    0.000000    0.000000    
-30.560413    148.210541    -10.022762    0.669358    5.400435    -28.126451    1.567394    0.976104    15.206241    -7.103111    -0.289637    5.055220    7.731030    -6.561139    -0.657017    5.819816    9.878838    -1.952754    1.115273    2.977132    -6.039011    -47.012085    13.577232    -30.080870    -6.127921    -17.656233    -126.621185    -2.102218    -28.813540    -4.326795    -15.871870    -0.613110    7.650927    33.985611    -16.850710    81.512772    4.408392    -15.625446    33.303429    12.109762    -12.224558    43.268173    1.401143    -40.232674    -13.365839    -26.905220    36.860004    -1.544836    8.240508    -3.611582    42.591721    0.000000    0.000000    0.000000    12.165467    6.515471    -12.013900    3.935175    30.551544    -3.971814    -4.386966    -30.172148    -8.278094    0.000000    0.000000    0.000000    
-30.586815    148.147141    -9.995343    0.679436    5.416343    -28.143433    1.568007    1.015777    15.225027    -7.052999    -0.317111    5.060111    7.759343    -6.519712    -0.664775    5.767718    9.849651    -1.965384    1.107471    3.005359    -6.058503    -46.986599    13.656121    -30.250460    -6.107180    -17.695232    -126.596062    -2.150465    -28.804844    -4.355959    -15.847039    -0.603880    7.636051    34.055019    -16.903465    81.475815    4.490413    -15.621302    33.286922    12.161413    -12.214941    43.338482    1.392117    -40.303478    -13.426778    -26.984165    36.972935    -1.546778    8.289165    -3.694786    42.707832    0.000000    0.000000    0.000000    12.145383    6.520632    -12.036953    3.958092    30.583664    -3.901295    -4.454748    -30.253016    -8.312255    0.000000    0.000000    0.000000    
-30.607700    148.081497    -9.979590    0.686276    5.416993    -28.167631    1.566502    1.079354    15.239331    -7.022633    -0.348480    5.063312    7.814856    -6.524590    -0.647995    5.717617    9.865152    -1.963401    1.121872    3.018065    -6.069293    -46.991035    13.730956    -30.407108    -6.107692    -17.696400    -126.596733    -2.162905    -28.806326    -4.372005    -15.799463    -0.536802    7.588834    34.109844    -16.959528    81.518959    4.493746    -15.645760    33.234890    12.141437    -12.250900    43.301376    1.386835    -40.342613    -13.419073    -27.024670    37.066898    -1.577722    8.376383    -3.757112    42.802593    0.000000    0.000000    0.000000    12.126023    6.510132    -12.035635    3.989222    30.669647    -3.865630    -4.537344    -30.346424    -8.367655    0.000000    0.000000    0.000000    
-30.617201    148.013901    -9.970149    0.706154    5.408681    -28.209240    1.557999    1.129577    15.259624    -6.996187    -0.348643    5.070362    7.835254    -6.541749    -0.644303    5.726850    9.882725    -1.965341    1.132284    3.019632    -6.097005    -47.006760    13.769391    -30.552330    -5.976355    -17.725851    -126.593460    -2.214411    -28.601151    -4.240221    -15.778804    -0.514853    7.548134    34.078156    -16.937830    81.507027    4.417563    -15.778378    33.218731    12.138192    -12.373414    43.221909    1.371970    -40.366177    -13.359898    -27.017632    37.144405    -1.630730    8.456040    -3.818527    42.869965    0.000000    0.000000    0.000000    12.097462    6.483492    -12.045726    3.983855    30.784046    -3.881673    -4.547740    -30.469765    -8.338065    0.000000    0.000000    0.000000    
-30.624273    147.944672    -9.967407    0.721838    5.395919    -28.249462    1.555125    1.176961    15.260707    -6.979093    -0.343144    5.071305    7.832445    -6.535535    -0.647450    5.787999    9.885243    -1.964234    1.148041    3.022548    -6.094638    -47.030830    13.797998    -30.666943    -5.995500    -17.677073    -126.621399    -2.168278    -28.598246    -4.230878    -15.737695    -0.524211    7.562162    34.191914    -17.001120    81.521271    4.514700    -15.800042    33.155949    12.155610    -12.409115    43.264805    1.359612    -40.379593    -13.288472    -27.003668    37.210953    -1.663424    8.559779    -3.862959    42.897072    0.000000    0.000000    0.000000    12.074205    6.447100    -12.073606    3.978830    30.920359    -3.943039    -4.556365    -30.593901    -8.284881    0.000000    0.000000    0.000000    
-30.626932    147.871017    -9.966193    0.743957    5.376060    -28.290054    1.544139    1.214052    15.261371    -6.958562    -0.326912    5.072701    7.881913    -6.536155    -0.629582    5.767513    9.900453    -1.957902    1.167071    3.026085    -6.108103    -47.072655    13.795325    -30.755196    -6.009330    -17.607014    -126.651634    -2.168986    -28.565588    -4.213614    -15.773241    -0.658114    7.557061    34.348995    -16.908083    81.461258    4.563924    -15.868956    33.109608    12.145497    -12.500662    43.220871    1.338305    -40.391304    -13.210911    -26.980732    37.283112    -1.712132    8.629943    -3.931019    42.933655    0.000000    0.000000    0.000000    12.047355    6.402764    -12.127563    3.936071    31.081762    -3.964253    -4.539577    -30.742552    -8.218693    0.000000    0.000000    0.000000    
-30.628126    147.797653    -9.965218    0.768855    5.350050    -28.326683    1.521502    1.238733    15.243775    -6.926744    -0.314733    5.067692    7.865699    -6.529411    -0.620802    5.854939    9.947322    -1.942370    1.169493    3.029702    -6.111168    -47.136238    13.869355    -30.829098    -6.037972    -17.627968    -126.670624    -2.244840    -28.634361    -4.392151    -15.743997    -0.660965    7.582097    34.325058    -16.869953    81.445511    4.498351    -16.003912    33.018826    12.247439    -12.571337    43.249889    1.316739    -40.398712    -13.127876    -26.970280    37.350166    -1.734525    8.709530    -3.989074    42.940105    0.000000    0.000000    0.000000    12.018575    6.368392    -12.146862    3.925364    31.224585    -4.038408    -4.572124    -30.885485    -8.188172    0.000000    0.000000    0.000000    
